<svg width="31" height="31" viewBox="0 0 31 31" fill="none" xmlns="http://www.w3.org/2000/svg">
<path d="M3.875 11.625C3.875 8.54186 5.09977 5.58499 7.27988 3.40488C9.45999 1.22477 12.4169 0 15.5 0C18.5831 0 21.54 1.22477 23.7201 3.40488C25.9002 5.58499 27.125 8.54186 27.125 11.625C27.125 19.375 15.5 31 15.5 31C15.5 31 3.875 19.375 3.875 11.625ZM10.6562 11.625C10.6562 12.9096 11.1666 14.1417 12.075 15.05C12.9833 15.9584 14.2154 16.4688 15.5 16.4688C16.7846 16.4688 18.0167 15.9584 18.925 15.05C19.8334 14.1417 20.3438 12.9096 20.3438 11.625C20.3438 10.3404 19.8334 9.10833 18.925 8.19995C18.0167 7.29157 16.7846 6.78125 15.5 6.78125C14.2154 6.78125 12.9833 7.29157 12.075 8.19995C11.1666 9.10833 10.6562 10.3404 10.6562 11.625Z" fill="black"/>
</svg>
